name Walk6.mot
datacolumns 19
datarows 30
range 3.59500000 3.74000000
endheader

                time	   L_ground_force_vx	   L_ground_force_vy	   L_ground_force_vz	   L_ground_force_px	   L_ground_force_py	   L_ground_force_pz	   R_ground_force_vx	   R_ground_force_vy	   R_ground_force_vz	   R_ground_force_px	   R_ground_force_py	   R_ground_force_pz	   L_ground_torque_x	   L_ground_torque_y	   L_ground_torque_z	   R_ground_torque_x	   R_ground_torque_y	   R_ground_torque_z	
          3.59500000	         -5.40115020	        119.89059071	         -6.63562645	         -0.06511489	          0.00000000	         -0.01442516	         -0.00000000	          0.00000000	         -0.00000000	          0.00000000	          0.00000000	          0.00000000	          0.00000000	          0.18626916	          0.00000000	          0.00000000	          0.00000000	          0.00000000	
          3.60000000	        -10.32384022	        170.91005635	         -9.11680830	         -0.14694875	          0.00000000	         -0.03448349	         -0.00000000	          0.00000000	         -0.00000000	         -0.00000000	          0.00000000	         -0.00000000	          0.00000000	          0.29464079	          0.00000000	          0.00000000	          0.00000000	          0.00000000	
          3.60500000	        -16.98128107	        227.39472533	        -11.15680248	         -0.21893139	          0.00000000	         -0.05223114	         -0.00000000	          0.00000000	         -0.00000000	         -0.00000000	          0.00000000	         -0.00000000	          0.00000000	          0.41417883	          0.00000000	          0.00000000	          0.00000000	          0.00000000	
          3.61000000	        -25.38019571	        286.68278535	        -12.54867946	         -0.27865271	          0.00000000	         -0.06710359	         -0.00000000	         -0.00000000	         -0.00000000	         -0.00000000	          0.00000000	         -0.00000000	          0.00000000	          0.53932279	          0.00000000	          0.00000000	          0.00000000	          0.00000000	
          3.61500000	        -35.21360029	        345.96609485	        -13.16209037	         -0.32554084	          0.00000000	         -0.07896857	         -0.00000000	         -0.00000001	         -0.00000000	         -0.00000000	          0.00000000	         -0.00000000	          0.00000000	          0.66214445	          0.00000000	          0.00000000	         -0.00000000	          0.00000000	
          3.62000000	        -45.88235603	        403.11603820	        -12.91765955	         -0.36024063	          0.00000000	         -0.08798068	         -0.00000000	         -0.00000001	         -0.00000000	         -0.00000000	          0.00000000	         -0.00000000	          0.00000000	          0.77512445	          0.00000000	          0.00000000	         -0.00000000	          0.00000000	
          3.62500000	        -56.70500330	        456.87805573	        -11.77682100	         -0.38412311	          0.00000000	         -0.09446301	         -0.00000000	         -0.00000002	         -0.00000000	         -0.00000000	          0.00000000	         -0.00000000	          0.00000000	          0.87365029	          0.00000000	          0.00000000	         -0.00000000	          0.00000000	
          3.63000000	        -67.15774194	        506.73786592	         -9.77308102	         -0.39891402	          0.00000000	         -0.09882046	          0.00000000	         -0.00000003	         -0.00000000	         -0.00000000	          0.00000000	         -0.00000000	          0.00000000	          0.95714102	          0.00000000	          0.00000000	         -0.00000000	          0.00000000	
          3.63500000	        -77.00258775	        552.68961165	         -7.02869912	         -0.40643237	          0.00000000	         -0.10147611	          0.00000000	         -0.00000004	         -0.00000000	         -0.00000000	          0.00000000	         -0.00000000	          0.00000000	          1.02928856	          0.00000000	          0.00000000	         -0.00000000	          0.00000000	
          3.64000000	        -86.23132508	        594.93515949	         -3.73874165	         -0.40842426	          0.00000000	         -0.10282691	          0.00000000	         -0.00000006	         -0.00000000	         -0.00000000	          0.00000000	         -0.00000000	          0.00000000	          1.09728174	          0.00000000	          0.00000000	         -0.00000000	          0.00000000	
          3.64500000	        -94.88466417	        633.70676523	         -0.13732364	         -0.40646182	          0.00000000	         -0.10322300	          0.00000000	         -0.00000007	         -0.00000000	         -0.00000000	          0.00000000	         -0.00000000	          0.00000000	          1.17067274	          0.00000000	          0.00000000	         -0.00000000	          0.00000000	
          3.65000000	       -102.92749196	        669.25362759	          3.57504982	         -0.40188731	          0.00000000	         -0.10296359	          0.00000001	         -0.00000008	         -0.00000000	         -0.00000000	          0.00000000	         -0.00000000	          0.00000000	          1.25935083	          0.00000000	          0.00000000	         -0.00000000	          0.00000000	
          3.65500000	       -110.25717093	        701.82100932	          7.29320312	         -0.39579402	          0.00000000	         -0.10229922	          0.00000001	         -0.00000009	         -0.00000000	         -0.00000000	          0.00000000	         -0.00000000	          0.00000000	          1.37077365	          0.00000000	          0.00000000	         -0.00000000	          0.00000000	
          3.66000000	       -116.75933827	        731.59096929	         11.01088915	         -0.38903043	          0.00000000	         -0.10143351	          0.00000001	         -0.00000009	         -0.00000000	         -0.00000000	          0.00000000	         -0.00000000	          0.00000000	          1.50773408	          0.00000000	          0.00000000	         -0.00000000	          0.00000000	
          3.66500000	       -122.33395928	        758.66466453	         14.79924240	         -0.38221940	          0.00000000	         -0.10052467	          0.00000001	         -0.00000008	          0.00000000	         -0.00000000	          0.00000000	         -0.00000000	          0.00000000	          1.66797513	          0.00000000	          0.00000000	         -0.00000000	          0.00000000	
          3.67000000	       -126.89884478	        783.11479533	         18.76710048	         -0.37578705	          0.00000000	         -0.09968539	          0.00000002	         -0.00000006	          0.00000000	          0.00000000	          0.00000000	          0.00000000	          0.00000000	          1.84629630	          0.00000000	          0.00000000	         -0.00000000	          0.00000000	
          3.67500000	       -130.39640647	        805.03252603	         23.00206211	         -0.36999657	          0.00000000	         -0.09898665	          0.00000002	         -0.00000001	          0.00000001	          0.00000000	          0.00000000	          0.00000000	          0.00000000	          2.03804973	          0.00000000	          0.00000000	         -0.00000000	          0.00000000	
          3.68000000	       -132.80953499	        824.54451072	         27.53206136	         -0.36498182	          0.00000000	         -0.09846509	          0.00000002	          0.00000006	          0.00000002	          0.00000000	          0.00000000	          0.00000000	          0.00000000	          2.24038519	          0.00000000	          0.00000000	         -0.00000000	          0.00000000	
          3.68500000	       -134.16700707	        841.80956721	         32.32925551	         -0.36078019	          0.00000000	         -0.09813123	          0.00000002	          0.00000017	          0.00000003	          0.00000000	          0.00000000	          0.00000000	          0.00000000	          2.45095021	          0.00000000	          0.00000000	          0.00000000	          0.00000000	
          3.69000000	       -134.52939196	        857.00359973	         37.33821905	         -0.35736218	          0.00000000	         -0.09797752	          0.00000001	          0.00000031	          0.00000004	          0.00000000	          0.00000000	          0.00000000	          0.00000000	          2.66563303	          0.00000000	          0.00000000	          0.00000000	          0.00000000	
          3.69500000	       -133.97474321	        870.30181085	         42.49117547	         -0.35465500	          0.00000000	         -0.09798506	          0.00000000	          0.00000050	          0.00000005	          0.00000000	          0.00000000	          0.00000000	          0.00000000	          2.87881619	          0.00000000	          0.00000000	          0.00000001	          0.00000000	
          3.70000000	       -132.59117745	        881.85834987	         47.70579972	         -0.35256107	          0.00000000	         -0.09812777	         -0.00000001	          0.00000073	          0.00000007	          0.00000000	          0.00000000	          0.00000000	          0.00000000	          3.08482908	          0.00000000	          0.00000000	          0.00000001	          0.00000000	
          3.70500000	       -130.47309533	        891.78763741	         52.88169085	         -0.35097195	          0.00000000	         -0.09837584	         -0.00000003	          0.00000100	          0.00000008	          0.00000000	          0.00000000	          0.00000000	          0.00000000	          3.27919704	          0.00000000	          0.00000000	          0.00000002	          0.00000000	
          3.71000000	       -127.72163985	        900.16292658	         57.90863457	         -0.34977840	          0.00000000	         -0.09869894	         -0.00000006	          0.00000129	          0.00000010	          0.00000000	          0.00000000	          0.00000000	          0.00000000	          3.45803640	          0.00000000	          0.00000000	          0.00000003	          0.00000000	
          3.71500000	       -124.44407161	        907.03780386	         62.67839404	         -0.34887829	          0.00000000	         -0.09906807	         -0.00000010	          0.00000159	          0.00000010	          0.00000000	          0.00000000	          0.00000000	          0.00000000	          3.61755310	          0.00000000	          0.00000000	          0.00000003	          0.00000000	
          3.72000000	       -120.74504721	        912.47096943	         67.08987993	         -0.34818192	          0.00000000	         -0.09945582	         -0.00000014	          0.00000186	          0.00000010	          0.00000000	          0.00000000	          0.00000000	          0.00000000	          3.75388076	          0.00000000	          0.00000000	          0.00000004	          0.00000000	
          3.72500000	       -116.71828407	        916.53839364	         71.04854490	         -0.34761512	          0.00000000	         -0.09983635	         -0.00000019	          0.00000205	          0.00000009	          0.00000000	          0.00000000	          0.00000000	          0.00000000	          3.86337319	          0.00000000	          0.00000000	          0.00000005	          0.00000000	
          3.73000000	       -112.44467306	        919.33872568	         74.46755665	         -0.34711979	          0.00000000	         -0.10018619	         -0.00000025	          0.00000209	          0.00000006	          0.00000000	          0.00000000	          0.00000000	          0.00000000	          3.94282760	          0.00000000	          0.00000000	          0.00000006	          0.00000000	
          3.73500000	       -107.99462668	        920.99570550	         77.27246175	         -0.34665268	          0.00000000	         -0.10048593	         -0.00000031	          0.00000190	          0.00000000	          0.00000000	          0.00000000	          0.00000000	          0.00000000	          3.98976489	          0.00000000	          0.00000000	          0.00000006	          0.00000000	
          3.74000000	       -103.43149571	        921.65460246	         79.40839688	         -0.34618302	          0.00000000	         -0.10072077	         -0.00000037	          0.00000137	         -0.00000009	         -0.00000000	          0.00000000	         -0.00000000	          0.00000000	          4.00268031	          0.00000000	          0.00000000	          0.00000006	          0.00000000	
